inDegrees=no
num_controls=7
num_derivatives=13
num_iterations=149
num_multipliers=7
num_parameters=0
num_slacks=7
num_states=26
objective=6.577886
objective_accelerations=0.677592
objective_balance=0.070455
objective_effort=0.546145
objective_height=5.188414
objective_ligament=0.095279
solver_duration=1278.840191
status=Solve_Succeeded
success=true
DataType=double
version=3
OpenSimVersion=4.4-2022-07-23-0e9fedc
endheader
time	/jointset/ground_pelvis/pelvis_tilt/value	/jointset/ground_pelvis/pelvis_tx/value	/jointset/ground_pelvis/pelvis_ty/value	/jointset/hip_r/hip_flexion_r/value	/jointset/hip_r/hip_adduction_r/value	/jointset/hip_r/hip_rotation_r/value	/jointset/back/lumbar_extension/value	/jointset/patellofemoral_r/patellar_flexion_r/value	/jointset/knee_r/knee_flexion_r/value	/jointset/knee_r/knee_adduction_r/value	/jointset/knee_r/knee_rotation_r/value	/jointset/ankle_r/ankle_angle_r/value	/jointset/subtalar_r/subtalar_angle_r/value	/jointset/ground_pelvis/pelvis_tilt/speed	/jointset/ground_pelvis/pelvis_tx/speed	/jointset/ground_pelvis/pelvis_ty/speed	/jointset/hip_r/hip_flexion_r/speed	/jointset/hip_r/hip_adduction_r/speed	/jointset/hip_r/hip_rotation_r/speed	/jointset/back/lumbar_extension/speed	/jointset/patellofemoral_r/patellar_flexion_r/speed	/jointset/knee_r/knee_flexion_r/speed	/jointset/knee_r/knee_adduction_r/speed	/jointset/knee_r/knee_rotation_r/speed	/jointset/ankle_r/ankle_angle_r/speed	/jointset/subtalar_r/subtalar_angle_r/speed	/forceset/tau_hip_flexion_r	/forceset/tau_hip_adduction_r	/forceset/tau_hip_rotation_r	/forceset/tau_knee_flexion_r	/forceset/tau_ankle_angle_r	/forceset/tau_subtalar_angle_r	/forceset/tau_lumbar_extension	lambda_cid13_p0	lambda_cid14_p0	lambda_cid14_p1	lambda_cid14_p2	lambda_cid14_p3	lambda_cid14_p4	lambda_cid14_p5	/jointset/ground_pelvis/pelvis_tilt/accel	/jointset/ground_pelvis/pelvis_tx/accel	/jointset/ground_pelvis/pelvis_ty/accel	/jointset/hip_r/hip_flexion_r/accel	/jointset/hip_r/hip_adduction_r/accel	/jointset/hip_r/hip_rotation_r/accel	/jointset/back/lumbar_extension/accel	/jointset/patellofemoral_r/patellar_flexion_r/accel	/jointset/knee_r/knee_flexion_r/accel	/jointset/knee_r/knee_adduction_r/accel	/jointset/knee_r/knee_rotation_r/accel	/jointset/ankle_r/ankle_angle_r/accel	/jointset/subtalar_r/subtalar_angle_r/accel	gamma_cid13_p0	gamma_cid14_p0	gamma_cid14_p1	gamma_cid14_p2	gamma_cid14_p3	gamma_cid14_p4	gamma_cid14_p5
0	-0.006516701914965639	0.09626121528716663	0.9427240286530328	0.1762555651711513	-0.2321527043666481	-0.2616406867887638	-0.0385979564078546	0.07317816487763987	0.07317816487761825	0.1745329086688158	0.1745328415646683	0.0324735960626065	-0.003451801862754986	0	0	0	0	0	0	0	0	0	0	0	0	0	0.2493664116820195	-0.1761671900763963	-0.0503345376239176	-0.4461696118092793	0.4599455107426723	-0.1543834417527095	-0.140091039412068	-39.07630907282303	97.81378554484083	-40.13995310640098	-4.31435391423762	-46.41354829287281	-676.0097870203263	59.15852586416452	-2.573833230080188	-1.084439810236207	-0.7326912347035675	10.34993455017805	-0.09803747043101468	2.933422981781372	-5.134931828645302	10.74320446690497	10.74320446690483	-2.694110710424461	0.2117096673046571	3.779467367855552	0.7385501316737073	1.0386027110013e-07	2.156455940108095e-08	-8.13334334567683e-07	2.175192372450328e-07	6.292272803089065e-08	-2.640444667058432e-08	-3.949749435021082e-07
0.01	-0.00663726663988762	0.09620711839538366	0.942688732313809	0.176756525496928	-0.2321564532211759	-0.2614854362159413	-0.03885829190050456	0.07369992503901399	0.07369992503902441	0.1743989883935132	0.1745304833899111	0.03265697030636956	-0.003415060739792471	-0.02398066203625208	-0.0108424804661182	-0.00704596607860637	0.09979399095457431	-0.0007900072771430135	0.03088919732907642	-0.05173879316515948	0.1038886479110301	0.1038886479110406	-0.0265568614194419	-0.0004555871640670489	0.03640574517654015	0.00724480617129977	0.2405131756232928	-0.1949974422773752	-0.04765772252805568	-0.4319944151250428	0.4336853977997303	-0.1288713347026554	-0.1334109635952912	-39.09379668208249	90.31418743996234	-30.4836202520974	-5.727677399380208	-41.5160814544906	-676.2393737325211	77.40793589058367	-2.290337758160392	-1.08760489640639	-0.6885593104406806	9.734421394508741	-0.07560222494968197	3.142587355734267	-5.144107256110002	10.14216652568609	10.14216652568745	-2.602499825223379	-0.1717175490825528	3.530776842006334	0.7018308358418254	1.448163380947304e-07	1.535557729764307e-08	-1.133987630372575e-06	2.130212855905942e-07	1.026030995875939e-07	-2.304869632488321e-07	-4.811974535174964e-07
0.02	-0.006993668998719701	0.09604390615261822	0.9425833743106008	0.1782434837375349	-0.2321693261221944	-0.2610261098203847	-0.03962616616393574	0.07524666599407639	0.07524666599408492	0.1740062943104058	0.1745240644149349	0.03319633175178763	-0.003308994559920186	-0.04716752678308935	-0.02182307019649289	-0.01401233279691972	0.1971995829656015	-0.001824809298040562	0.06081516454869568	-0.1015077541566875	0.2049961587214379	0.2049961587214495	-0.05175476153965709	-0.0008121599609212574	0.07119744033120942	0.01386501138194793	0.2316599395646252	-0.2138276944783592	-0.04498090743276065	-0.4178192184406101	0.407425284856837	-0.103359227652587	-0.1267308877785221	-39.14553543367355	82.90823690601864	-20.82825126774263	-7.121016304170934	-36.83587242280819	-675.0517980140758	95.42467172824639	-2.415073772197395	-1.112061663087409	-0.7167713626449719	9.872254761468676	-0.1469964191819319	2.740776959889414	-4.74096539391916	10.18697704678065	10.18697704677862	-2.422318450579089	0.2315125407477729	3.456657363481503	0.6136299395434132	1.857724050893308e-07	9.146595194205184e-09	-1.454640926177468e-06	2.085233339361556e-07	1.422834711442972e-07	-4.345694798270799e-07	-5.674199635328846e-07
0.03	-0.007578662564301635	0.09577095693434703	0.9424084544972309	0.1806928092381094	-0.232193750196373	-0.2602739852259812	-0.04088121921070798	0.07779156776633361	0.07779156776633507	0.1733686046959762	0.1745161648216276	0.0340767580127829	-0.003139511821218811	-0.06971651377124677	-0.03271149124580474	-0.02097863934661391	0.2922006224926358	-0.003096507172883569	0.08945918431699151	-0.1491603609596642	0.3035313846255573	0.3035313846255447	-0.07553558489401097	-0.0007821232355137985	0.1047187876794098	0.0199558704056929	0.2249937112021574	-0.2010696861326913	-0.04338840393846764	-0.4102268773333281	0.3986687164161492	-0.1099846400067628	-0.1214488819805249	-39.23007674441367	79.91238417413997	-24.23068500729912	-6.578044682831265	-34.99764228762702	-674.2028982612243	87.44181786688064	-2.157598578182822	-1.068911376805635	-0.6876994600632266	9.244296733475508	-0.1229061518426506	2.903700293776745	-4.726034188087715	9.618836377032514	9.618836377030298	-2.319037927675068	-0.1133132257029039	3.274550756524835	0.5952589498848239	1.971648726395523e-07	-4.862755681491591e-09	-1.555932526057065e-06	1.728688766577893e-07	1.660811046848723e-07	-5.93786319605085e-07	-5.732070735393621e-07
